<svg width="34" height="34" viewBox="0 0 34 34" fill="none" xmlns="http://www.w3.org/2000/svg">
<g filter="url(#filter0_d_137_41937)">
<path d="M1 17C1 9.45753 1 5.68629 3.34315 3.34315C5.68629 1 9.45753 1 17 1C24.5425 1 28.3137 1 30.6569 3.34315C33 5.68629 33 9.45753 33 17C33 24.5425 33 28.3137 30.6569 30.6569C28.3137 33 24.5425 33 17 33C9.45753 33 5.68629 33 3.34315 30.6569C1 28.3137 1 24.5425 1 17Z" fill="white"/>
<g clip-path="url(#clip0_137_41937)">
<path d="M25.9248 16.5779C25.6301 14.3095 24.4827 12.2384 22.7158 10.7855C20.9489 9.33273 18.6951 8.60722 16.4125 8.7565C14.1299 8.90578 11.9897 9.91864 10.4271 11.5892C8.86444 13.2598 7.99655 15.4627 7.99981 17.7502C7.99549 18.9746 8.2436 20.1867 8.72867 21.3109C9.21374 22.4351 9.92534 23.4473 10.8191 24.2842C11.5026 24.917 12.4032 25.2628 13.3346 25.2502H20.6598C21.6438 25.2525 22.5891 24.8675 23.2916 24.1784C24.2926 23.2045 25.052 22.01 25.5092 20.6903C25.9665 19.3707 26.1088 17.9624 25.9248 16.5779ZM22.2431 23.1029C21.8211 23.5187 21.2522 23.7512 20.6598 23.7502H13.3346C12.7865 23.7614 12.2549 23.5626 11.8488 23.1944C11.1043 22.497 10.5114 21.6536 10.1073 20.7169C9.70313 19.7803 9.49634 18.7703 9.49981 17.7502C9.50055 16.6943 9.72389 15.6505 10.1553 14.6869C10.5866 13.7232 11.2163 12.8613 12.0033 12.1574C13.3707 10.9243 15.1481 10.2444 16.9893 10.2502C17.2835 10.2503 17.5775 10.2668 17.8698 10.2997C19.2765 10.463 20.6082 11.0216 21.7105 11.9106C22.8129 12.7996 23.6408 13.9827 24.0984 15.3229C24.5561 16.6631 24.6247 18.1055 24.2963 19.4831C23.9679 20.8607 23.256 22.117 22.2431 23.1067V23.1029ZM13.8551 20.9639C13.9973 21.1032 14.0784 21.2932 14.0805 21.4922C14.0826 21.6912 14.0055 21.8829 13.8663 22.0252C13.7271 22.1674 13.537 22.2485 13.338 22.2506C13.139 22.2527 12.9473 22.1757 12.8051 22.0364C11.9538 21.2025 11.3701 20.1341 11.1284 18.9672C10.8867 17.8003 10.9979 16.5879 11.4478 15.4845C11.8978 14.3811 12.6662 13.4366 13.655 12.7716C14.6437 12.1065 15.8082 11.7509 16.9998 11.7502C17.2866 11.7501 17.5731 11.7704 17.8571 11.8109C17.9546 11.825 18.0484 11.8581 18.1331 11.9084C18.2178 11.9587 18.2917 12.0253 18.3507 12.1042C18.4097 12.1831 18.4526 12.2729 18.4769 12.3683C18.5012 12.4638 18.5064 12.5632 18.4923 12.6607C18.4794 12.7587 18.447 12.8532 18.397 12.9385C18.3471 13.0239 18.2806 13.0984 18.2014 13.1576C18.1222 13.2169 18.032 13.2597 17.936 13.2836C17.84 13.3075 17.7403 13.3119 17.6426 13.2967C16.7039 13.1626 15.7469 13.3284 14.9081 13.7705C14.0693 14.2126 13.3916 14.9083 12.9717 15.7584C12.5517 16.6085 12.4111 17.5696 12.5697 18.5043C12.7283 19.4391 13.1782 20.2999 13.8551 20.9639ZM22.9391 16.8929C22.9796 17.1769 22.9999 17.4633 22.9998 17.7502C23.0022 18.5494 22.8436 19.341 22.5333 20.0775C22.223 20.8141 21.7674 21.4806 21.1938 22.0372C21.0514 22.1764 20.8595 22.2534 20.6603 22.2511C20.4612 22.2489 20.271 22.1676 20.1318 22.0252C19.9926 21.8827 19.9156 21.6908 19.9179 21.4917C19.9201 21.2925 20.0014 21.1024 20.1438 20.9632C20.6506 20.4692 21.0332 19.8624 21.2606 19.1923C21.4879 18.5221 21.5534 17.8077 21.4518 17.1074C21.4234 16.9104 21.4744 16.7101 21.5936 16.5507C21.7128 16.3913 21.8904 16.2857 22.0874 16.2573C22.2845 16.2288 22.4847 16.2798 22.6441 16.399C22.8036 16.5182 22.9091 16.6959 22.9376 16.8929H22.9391ZM18.4443 17.3662C18.5346 17.6907 18.5148 18.0361 18.3881 18.3482C18.2614 18.6603 18.0348 18.9217 17.7439 19.0915C17.4529 19.2614 17.1139 19.33 16.7798 19.2868C16.4457 19.2437 16.1354 19.091 15.8971 18.8528C15.6589 18.6146 15.5063 18.3042 15.4631 17.9701C15.4199 17.636 15.4886 17.297 15.6584 17.0061C15.8283 16.7151 16.0896 16.4886 16.4018 16.3619C16.7139 16.2352 17.0592 16.2154 17.3838 16.3057L20.2196 13.4699C20.2887 13.3983 20.3715 13.3411 20.463 13.3018C20.5545 13.2625 20.6529 13.2418 20.7525 13.241C20.8521 13.2401 20.9509 13.2591 21.043 13.2968C21.1352 13.3345 21.2189 13.3902 21.2894 13.4606C21.3598 13.531 21.4155 13.6148 21.4532 13.707C21.4909 13.7991 21.5099 13.8979 21.509 13.9975C21.5081 14.0971 21.4874 14.1955 21.4481 14.287C21.4088 14.3785 21.3517 14.4612 21.2801 14.5304L18.4443 17.3662Z" fill="#E67E22"/>
</g>
</g>
<defs>
<filter id="filter0_d_137_41937" x="0" y="0" width="34" height="34" filterUnits="userSpaceOnUse" color-interpolation-filters="sRGB">
<feFlood flood-opacity="0" result="BackgroundImageFix"/>
<feColorMatrix in="SourceAlpha" type="matrix" values="0 0 0 0 0 0 0 0 0 0 0 0 0 0 0 0 0 0 127 0" result="hardAlpha"/>
<feMorphology radius="1" operator="dilate" in="SourceAlpha" result="effect1_dropShadow_137_41937"/>
<feOffset/>
<feComposite in2="hardAlpha" operator="out"/>
<feColorMatrix type="matrix" values="0 0 0 0 0 0 0 0 0 0 0 0 0 0 0 0 0 0 0.05 0"/>
<feBlend mode="normal" in2="BackgroundImageFix" result="effect1_dropShadow_137_41937"/>
<feBlend mode="normal" in="SourceGraphic" in2="effect1_dropShadow_137_41937" result="shape"/>
</filter>
<clipPath id="clip0_137_41937">
<rect width="18" height="18" fill="white" transform="translate(8 8)"/>
</clipPath>
</defs>
</svg>
