<svg width="34" height="34" viewBox="0 0 34 34" fill="none" xmlns="http://www.w3.org/2000/svg">
<g filter="url(#filter0_d_1619_1825)">
<path d="M1 17C1 9.45753 1 5.68629 3.34315 3.34315C5.68629 1 9.45753 1 17 1C24.5425 1 28.3137 1 30.6569 3.34315C33 5.68629 33 9.45753 33 17C33 24.5425 33 28.3137 30.6569 30.6569C28.3137 33 24.5425 33 17 33C9.45753 33 5.68629 33 3.34315 30.6569C1 28.3137 1 24.5425 1 17Z" fill="white"/>
<path d="M17 9.5C12.86 9.5 9.5 12.86 9.5 17C9.5 21.14 12.86 24.5 17 24.5C21.14 24.5 24.5 21.14 24.5 17C24.5 12.86 21.14 9.5 17 9.5ZM17 22.8125C13.7975 22.8125 11.1875 20.2025 11.1875 17C11.1875 15.98 11.4575 14.9825 11.96 14.105C12.11 13.835 12.455 13.745 12.725 13.895L17.2775 16.5125C17.5475 16.67 17.6375 17.0075 17.4875 17.2775C17.33 17.5475 16.9925 17.6375 16.7225 17.4875L14.54 16.235C14.465 16.4825 14.4125 16.7375 14.4125 17C14.4125 18.425 15.575 19.5875 17 19.5875C18.425 19.5875 19.5875 18.425 19.5875 17C19.5875 15.575 18.425 14.4125 17 14.4125C16.6175 14.4125 16.2425 14.495 15.8975 14.66C15.6125 14.795 15.2825 14.675 15.1475 14.39C15.0125 14.1125 15.1325 13.775 15.4175 13.64C15.9125 13.4075 16.445 13.2875 17 13.2875C19.0475 13.2875 20.7125 14.9525 20.7125 17C20.7125 19.0475 19.0475 20.7125 17 20.7125C14.9525 20.7125 13.2875 19.0475 13.2875 17C13.2875 16.5425 13.3775 16.085 13.5425 15.6575L12.68 15.17C12.44 15.7475 12.3125 16.37 12.3125 17C12.3125 19.5875 14.4125 21.6875 17 21.6875C19.5875 21.6875 21.6875 19.5875 21.6875 17C21.6875 14.4125 19.5875 12.3125 17 12.3125C15.98 12.3125 15.005 12.635 14.1875 13.25C13.94 13.4375 13.5875 13.385 13.4 13.1375C13.2125 12.89 13.265 12.5375 13.5125 12.35C14.525 11.5925 15.7325 11.1875 17 11.1875C20.2025 11.1875 22.8125 13.7975 22.8125 17C22.8125 20.2025 20.2025 22.8125 17 22.8125Z" fill="#27AE60"/>
</g>
<defs>
<filter id="filter0_d_1619_1825" x="0" y="0" width="34" height="34" filterUnits="userSpaceOnUse" color-interpolation-filters="sRGB">
<feFlood flood-opacity="0" result="BackgroundImageFix"/>
<feColorMatrix in="SourceAlpha" type="matrix" values="0 0 0 0 0 0 0 0 0 0 0 0 0 0 0 0 0 0 127 0" result="hardAlpha"/>
<feMorphology radius="1" operator="dilate" in="SourceAlpha" result="effect1_dropShadow_1619_1825"/>
<feOffset/>
<feComposite in2="hardAlpha" operator="out"/>
<feColorMatrix type="matrix" values="0 0 0 0 0 0 0 0 0 0 0 0 0 0 0 0 0 0 0.05 0"/>
<feBlend mode="normal" in2="BackgroundImageFix" result="effect1_dropShadow_1619_1825"/>
<feBlend mode="normal" in="SourceGraphic" in2="effect1_dropShadow_1619_1825" result="shape"/>
</filter>
</defs>
</svg>
