<svg width="34" height="34" viewBox="0 0 34 34" fill="none" xmlns="http://www.w3.org/2000/svg">
<g filter="url(#filter0_d_1619_1773)">
<path d="M1 17C1 9.45753 1 5.68629 3.34315 3.34315C5.68629 1 9.45753 1 17 1C24.5425 1 28.3137 1 30.6569 3.34315C33 5.68629 33 9.45753 33 17C33 24.5425 33 28.3137 30.6569 30.6569C28.3137 33 24.5425 33 17 33C9.45753 33 5.68629 33 3.34315 30.6569C1 28.3137 1 24.5425 1 17Z" fill="white"/>
<g clip-path="url(#clip0_1619_1773)">
<path d="M25.9249 16.5779C25.6303 14.3095 24.4828 12.2384 22.7159 10.7855C20.949 9.33273 18.6952 8.60722 16.4126 8.7565C14.13 8.90578 11.9898 9.91864 10.4272 11.5892C8.86456 13.2598 7.99667 15.4627 7.99993 17.7502C7.99561 18.9746 8.24373 20.1867 8.72879 21.3109C9.21386 22.4351 9.92547 23.4473 10.8192 24.2842C11.5027 24.917 12.4033 25.2628 13.3347 25.2502H20.6599C21.6439 25.2525 22.5893 24.8675 23.2917 24.1784C24.2927 23.2045 25.0522 22.01 25.5094 20.6903C25.9666 19.3707 26.1089 17.9624 25.9249 16.5779ZM22.2432 23.1029C21.8212 23.5187 21.2523 23.7512 20.6599 23.7502H13.3347C12.7866 23.7614 12.2551 23.5626 11.8489 23.1944C11.1044 22.497 10.5115 21.6536 10.1074 20.7169C9.70325 19.7803 9.49646 18.7703 9.49993 17.7502C9.50067 16.6943 9.72401 15.6505 10.1554 14.6869C10.5868 13.7232 11.2165 12.8613 12.0034 12.1574C13.3708 10.9243 15.1482 10.2444 16.9894 10.2502C17.2836 10.2503 17.5776 10.2668 17.8699 10.2997C19.2766 10.463 20.6083 11.0216 21.7106 11.9106C22.813 12.7996 23.6409 13.9827 24.0986 15.3229C24.5562 16.6631 24.6248 18.1055 24.2964 19.4831C23.9681 20.8607 23.2562 22.117 22.2432 23.1067V23.1029ZM13.8552 20.9639C13.9974 21.1032 14.0785 21.2932 14.0806 21.4922C14.0827 21.6912 14.0057 21.8829 13.8664 22.0252C13.7272 22.1674 13.5372 22.2485 13.3381 22.2506C13.1391 22.2527 12.9474 22.1757 12.8052 22.0364C11.9539 21.2025 11.3702 20.1341 11.1285 18.9672C10.8868 17.8003 10.998 16.5879 11.448 15.4845C11.8979 14.3811 12.6663 13.4366 13.6551 12.7716C14.6439 12.1065 15.8083 11.7509 16.9999 11.7502C17.2868 11.7501 17.5732 11.7704 17.8572 11.8109C17.9547 11.825 18.0485 11.8581 18.1332 11.9084C18.2179 11.9587 18.2919 12.0253 18.3509 12.1042C18.4099 12.1831 18.4527 12.2729 18.477 12.3683C18.5013 12.4638 18.5065 12.5632 18.4924 12.6607C18.4795 12.7587 18.4471 12.8532 18.3972 12.9385C18.3472 13.0239 18.2807 13.0984 18.2015 13.1576C18.1223 13.2169 18.0321 13.2597 17.9361 13.2836C17.8402 13.3075 17.7404 13.3119 17.6427 13.2967C16.704 13.1626 15.747 13.3284 14.9083 13.7705C14.0695 14.2126 13.3917 14.9083 12.9718 15.7584C12.5519 16.6085 12.4112 17.5696 12.5698 18.5043C12.7285 19.4391 13.1783 20.2999 13.8552 20.9639ZM22.9392 16.8929C22.9797 17.1769 23 17.4633 22.9999 17.7502C23.0024 18.5494 22.8437 19.341 22.5334 20.0775C22.2231 20.8141 21.7675 21.4806 21.1939 22.0372C21.0515 22.1764 20.8596 22.2534 20.6604 22.2511C20.4613 22.2489 20.2712 22.1676 20.1319 22.0252C19.9927 21.8827 19.9157 21.6908 19.918 21.4917C19.9202 21.2925 20.0015 21.1024 20.1439 20.9632C20.6507 20.4692 21.0334 19.8624 21.2607 19.1923C21.488 18.5221 21.5535 17.8077 21.4519 17.1074C21.4235 16.9104 21.4745 16.7101 21.5937 16.5507C21.7129 16.3913 21.8905 16.2857 22.0876 16.2573C22.2846 16.2288 22.4848 16.2798 22.6443 16.399C22.8037 16.5182 22.9092 16.6959 22.9377 16.8929H22.9392ZM18.4444 17.3662C18.5347 17.6907 18.5149 18.0361 18.3882 18.3482C18.2615 18.6603 18.035 18.9217 17.744 19.0915C17.4531 19.2614 17.1141 19.33 16.78 19.2868C16.4459 19.2437 16.1355 19.091 15.8973 18.8528C15.6591 18.6146 15.5064 18.3042 15.4633 17.9701C15.4201 17.636 15.4887 17.297 15.6586 17.0061C15.8284 16.7151 16.0898 16.4886 16.4019 16.3619C16.7141 16.2352 17.0594 16.2154 17.3839 16.3057L20.2197 13.4699C20.2889 13.3983 20.3716 13.3411 20.4631 13.3018C20.5546 13.2625 20.653 13.2418 20.7526 13.241C20.8522 13.2401 20.951 13.2591 21.0431 13.2968C21.1353 13.3345 21.2191 13.3902 21.2895 13.4606C21.3599 13.531 21.4156 13.6148 21.4533 13.707C21.491 13.7991 21.51 13.8979 21.5091 13.9975C21.5083 14.0971 21.4876 14.1955 21.4483 14.287C21.409 14.3785 21.3518 14.4612 21.2802 14.5304L18.4444 17.3662Z" fill="#8A38F5"/>
</g>
</g>
<defs>
<filter id="filter0_d_1619_1773" x="0" y="0" width="34" height="34" filterUnits="userSpaceOnUse" color-interpolation-filters="sRGB">
<feFlood flood-opacity="0" result="BackgroundImageFix"/>
<feColorMatrix in="SourceAlpha" type="matrix" values="0 0 0 0 0 0 0 0 0 0 0 0 0 0 0 0 0 0 127 0" result="hardAlpha"/>
<feMorphology radius="1" operator="dilate" in="SourceAlpha" result="effect1_dropShadow_1619_1773"/>
<feOffset/>
<feComposite in2="hardAlpha" operator="out"/>
<feColorMatrix type="matrix" values="0 0 0 0 0 0 0 0 0 0 0 0 0 0 0 0 0 0 0.05 0"/>
<feBlend mode="normal" in2="BackgroundImageFix" result="effect1_dropShadow_1619_1773"/>
<feBlend mode="normal" in="SourceGraphic" in2="effect1_dropShadow_1619_1773" result="shape"/>
</filter>
<clipPath id="clip0_1619_1773">
<rect width="18" height="18" fill="white" transform="translate(8 8)"/>
</clipPath>
</defs>
</svg>
