<svg width="32" height="32" viewBox="0 0 32 32" fill="none" xmlns="http://www.w3.org/2000/svg">
<g clip-path="url(#clip0_538_3229)">
<path d="M16 32C14.5855 32 13.229 31.4381 12.2288 30.4379C11.2286 29.4377 10.6667 28.0812 10.6667 26.6667V21.3333H5.33333C3.91885 21.3333 2.56229 20.7714 1.5621 19.7712C0.561903 18.771 0 17.4145 0 16C0 14.5855 0.561903 13.229 1.5621 12.2288C2.56229 11.2286 3.91885 10.6667 5.33333 10.6667H10.6667V5.33333C10.6667 3.91885 11.2286 2.56229 12.2288 1.5621C13.229 0.561903 14.5855 0 16 0C17.4145 0 18.771 0.561903 19.7712 1.5621C20.7714 2.56229 21.3333 3.91885 21.3333 5.33333V10.6667H26.6667C28.0812 10.6667 29.4377 11.2286 30.4379 12.2288C31.4381 13.229 32 14.5855 32 16C32 17.4145 31.4381 18.771 30.4379 19.7712C29.4377 20.7714 28.0812 21.3333 26.6667 21.3333H21.3333V26.6667C21.3333 28.0812 20.7714 29.4377 19.7712 30.4379C18.771 31.4381 17.4145 32 16 32ZM5.33333 13.3333C4.62609 13.3333 3.94781 13.6143 3.44772 14.1144C2.94762 14.6145 2.66667 15.2928 2.66667 16C2.66667 16.7072 2.94762 17.3855 3.44772 17.8856C3.94781 18.3857 4.62609 18.6667 5.33333 18.6667H12C12.3536 18.6667 12.6928 18.8071 12.9428 19.0572C13.1929 19.3072 13.3333 19.6464 13.3333 20V26.6667C13.3333 27.3739 13.6143 28.0522 14.1144 28.5523C14.6145 29.0524 15.2928 29.3333 16 29.3333C16.7072 29.3333 17.3855 29.0524 17.8856 28.5523C18.3857 28.0522 18.6667 27.3739 18.6667 26.6667V20C18.6667 19.6464 18.8071 19.3072 19.0572 19.0572C19.3072 18.8071 19.6464 18.6667 20 18.6667H26.6667C27.3739 18.6667 28.0522 18.3857 28.5523 17.8856C29.0524 17.3855 29.3333 16.7072 29.3333 16C29.3333 15.2928 29.0524 14.6145 28.5523 14.1144C28.0522 13.6143 27.3739 13.3333 26.6667 13.3333H20C19.6464 13.3333 19.3072 13.1929 19.0572 12.9428C18.8071 12.6928 18.6667 12.3536 18.6667 12V5.33333C18.6667 4.62609 18.3857 3.94781 17.8856 3.44772C17.3855 2.94762 16.7072 2.66667 16 2.66667C15.2928 2.66667 14.6145 2.94762 14.1144 3.44772C13.6143 3.94781 13.3333 4.62609 13.3333 5.33333V12C13.3333 12.3536 13.1929 12.6928 12.9428 12.9428C12.6928 13.1929 12.3536 13.3333 12 13.3333H5.33333Z" fill="black"/>
</g>
<defs>
<clipPath id="clip0_538_3229">
<rect width="32" height="32" fill="white"/>
</clipPath>
</defs>
</svg>
