<svg width="19" height="18" viewBox="0 0 19 18" fill="none" xmlns="http://www.w3.org/2000/svg">
<path d="M14.2143 8.2533H6.35714L8.94214 5.78402C9.01579 5.71425 9.07424 5.63124 9.11413 5.53978C9.15402 5.44832 9.17456 5.35022 9.17456 5.25114C9.17456 5.15206 9.15402 5.05396 9.11413 4.96249C9.07424 4.87103 9.01579 4.78802 8.94214 4.71825C8.79493 4.57846 8.59579 4.5 8.38821 4.5C8.18064 4.5 7.9815 4.57846 7.83429 4.71825L4.46357 7.94558C4.16847 8.22579 4.00175 8.60637 4 9.00384C4.00382 9.3987 4.17038 9.77622 4.46357 10.0546L7.83429 13.2819C7.90754 13.3514 7.99441 13.4064 8.08993 13.4438C8.18545 13.4813 8.28775 13.5003 8.39099 13.5C8.49423 13.4996 8.59639 13.4799 8.69163 13.4418C8.78687 13.4038 8.87333 13.3481 8.94607 13.2782C9.01881 13.2082 9.07642 13.1252 9.11559 13.034C9.15476 12.9427 9.17473 12.845 9.17437 12.7464C9.174 12.6478 9.15331 12.5502 9.11346 12.4592C9.07362 12.3682 9.0154 12.2856 8.94214 12.2162L6.35714 9.75438H14.2143C14.4227 9.75438 14.6225 9.6753 14.7699 9.53455C14.9172 9.3938 15 9.20289 15 9.00384C15 8.80478 14.9172 8.61388 14.7699 8.47313C14.6225 8.33237 14.4227 8.2533 14.2143 8.2533Z" fill="#1D3478"/>
</svg>
