<svg width="28" height="28" viewBox="0 0 28 28" fill="none" xmlns="http://www.w3.org/2000/svg">
<g filter="url(#filter0_d_1331_390)">
<path d="M1 14C1 9.33074 1 6.9961 1.94463 5.22883C2.6905 3.83341 3.83341 2.6905 5.22883 1.94463C6.9961 1 9.33074 1 14 1C18.6693 1 21.0039 1 22.7712 1.94463C24.1666 2.6905 25.3095 3.83341 26.0554 5.22883C27 6.9961 27 9.33074 27 14C27 18.6693 27 21.0039 26.0554 22.7712C25.3095 24.1666 24.1666 25.3095 22.7712 26.0554C21.0039 27 18.6693 27 14 27C9.33074 27 6.9961 27 5.22883 26.0554C3.83341 25.3095 2.6905 24.1666 1.94463 22.7712C1 21.0039 1 18.6693 1 14Z" fill="white"/>
<path d="M15.5 19.375H15C14.795 19.375 14.625 19.205 14.625 19C14.625 18.795 14.795 18.625 15 18.625H15.5C17.805 18.625 18.625 17.805 18.625 15.5V12.5C18.625 10.195 17.805 9.375 15.5 9.375H12.5C10.195 9.375 9.375 10.195 9.375 12.5V12.99C9.375 13.195 9.205 13.365 9 13.365C8.795 13.365 8.625 13.195 8.625 12.99V12.5C8.625 9.785 9.785 8.625 12.5 8.625H15.5C18.215 8.625 19.375 9.785 19.375 12.5V15.5C19.375 18.215 18.215 19.375 15.5 19.375Z" fill="#2E75B6"/>
<path d="M14.5002 13.8751C14.4052 13.8751 14.3102 13.8401 14.2352 13.7651C14.0902 13.6201 14.0902 13.3801 14.2352 13.2351L16.1052 11.3601H15.0002C14.7952 11.3601 14.6252 11.1901 14.6252 10.9851C14.6252 10.7801 14.7902 10.6101 15.0002 10.6101H17.0052C17.1552 10.6101 17.2952 10.7001 17.3502 10.8401C17.4102 10.9801 17.3752 11.1401 17.2702 11.2501L14.7652 13.7651C14.6902 13.8401 14.5952 13.8751 14.5002 13.8751Z" fill="#2E75B6"/>
<path d="M17.0049 13.3701C16.7999 13.3701 16.6299 13.2001 16.6299 12.9951V10.9851C16.6299 10.7801 16.7999 10.6101 17.0049 10.6101C17.2099 10.6101 17.3799 10.7801 17.3799 10.9851V12.9901C17.3799 13.2001 17.2099 13.3701 17.0049 13.3701Z" fill="#2E75B6"/>
<path d="M11.925 19.375H10.575C9.245 19.375 8.625 18.755 8.625 17.425V16.075C8.625 14.745 9.245 14.125 10.575 14.125H11.925C13.255 14.125 13.875 14.745 13.875 16.075V17.425C13.875 18.755 13.255 19.375 11.925 19.375ZM10.575 14.875C9.655 14.875 9.375 15.155 9.375 16.075V17.425C9.375 18.345 9.655 18.625 10.575 18.625H11.925C12.845 18.625 13.125 18.345 13.125 17.425V16.075C13.125 15.155 12.845 14.875 11.925 14.875H10.575Z" fill="#2E75B6"/>
</g>
<defs>
<filter id="filter0_d_1331_390" x="0" y="0" width="28" height="28" filterUnits="userSpaceOnUse" color-interpolation-filters="sRGB">
<feFlood flood-opacity="0" result="BackgroundImageFix"/>
<feColorMatrix in="SourceAlpha" type="matrix" values="0 0 0 0 0 0 0 0 0 0 0 0 0 0 0 0 0 0 127 0" result="hardAlpha"/>
<feMorphology radius="1" operator="dilate" in="SourceAlpha" result="effect1_dropShadow_1331_390"/>
<feOffset/>
<feComposite in2="hardAlpha" operator="out"/>
<feColorMatrix type="matrix" values="0 0 0 0 0 0 0 0 0 0 0 0 0 0 0 0 0 0 0.05 0"/>
<feBlend mode="normal" in2="BackgroundImageFix" result="effect1_dropShadow_1331_390"/>
<feBlend mode="normal" in="SourceGraphic" in2="effect1_dropShadow_1331_390" result="shape"/>
</filter>
</defs>
</svg>
