<svg width="28" height="28" viewBox="0 0 28 28" fill="none" xmlns="http://www.w3.org/2000/svg">
<g filter="url(#filter0_d_1331_318)">
<path d="M1 14C1 9.33074 1 6.9961 1.94463 5.22883C2.6905 3.83341 3.83341 2.6905 5.22883 1.94463C6.9961 1 9.33074 1 14 1C18.6693 1 21.0039 1 22.7712 1.94463C24.1666 2.6905 25.3095 3.83341 26.0554 5.22883C27 6.9961 27 9.33074 27 14C27 18.6693 27 21.0039 26.0554 22.7712C25.3095 24.1666 24.1666 25.3095 22.7712 26.0554C21.0039 27 18.6693 27 14 27C9.33074 27 6.9961 27 5.22883 26.0554C3.83341 25.3095 2.6905 24.1666 1.94463 22.7712C1 21.0039 1 18.6693 1 14Z" fill="white"/>
<path d="M13.9997 14.6499C13.9347 14.6499 13.8697 14.6349 13.8097 14.5999L9.39468 12.045C9.21468 11.94 9.15467 11.7099 9.25967 11.5299C9.36467 11.3499 9.58967 11.2899 9.77467 11.3949L13.9997 13.8399L18.1997 11.4099C18.3797 11.3049 18.6097 11.37 18.7147 11.545C18.8197 11.725 18.7547 11.9549 18.5797 12.0599L14.1947 14.5999C14.1297 14.6299 14.0647 14.6499 13.9997 14.6499Z" fill="#27AE60"/>
<path d="M14 19.18C13.795 19.18 13.625 19.01 13.625 18.805V14.27C13.625 14.065 13.795 13.895 14 13.895C14.205 13.895 14.375 14.065 14.375 14.27V18.805C14.375 19.01 14.205 19.18 14 19.18Z" fill="#27AE60"/>
<path d="M14.0003 19.375C13.5603 19.375 13.1253 19.28 12.7803 19.09L10.1103 17.605C9.38531 17.205 8.82031 16.24 8.82031 15.41V12.585C8.82031 11.755 9.38531 10.795 10.1103 10.39L12.7803 8.91C13.4653 8.53 14.5353 8.53 15.2203 8.91L17.8903 10.395C18.6153 10.795 19.1803 11.76 19.1803 12.59V15.415C19.1803 16.245 18.6153 17.205 17.8903 17.61L15.2203 19.09C14.8753 19.28 14.4403 19.375 14.0003 19.375ZM14.0003 9.375C13.6853 9.375 13.3753 9.44 13.1453 9.565L10.4753 11.05C9.99531 11.32 9.57031 12.035 9.57031 12.59V15.415C9.57031 15.965 9.99531 16.685 10.4753 16.955L13.1453 18.44C13.6003 18.695 14.4003 18.695 14.8553 18.44L17.5253 16.955C18.0053 16.685 18.4303 15.97 18.4303 15.415V12.59C18.4303 12.04 18.0053 11.32 17.5253 11.05L14.8553 9.565C14.6253 9.44 14.3153 9.375 14.0003 9.375Z" fill="#27AE60"/>
<path d="M16.5001 14.995C16.2951 14.995 16.1251 14.825 16.1251 14.62V13.01L11.5651 10.38C11.3851 10.275 11.3251 10.045 11.4301 9.87002C11.5351 9.69002 11.7601 9.63001 11.9401 9.73501L16.6851 12.475C16.8001 12.54 16.8751 12.665 16.8751 12.8V14.63C16.8751 14.825 16.7051 14.995 16.5001 14.995Z" fill="#27AE60"/>
</g>
<defs>
<filter id="filter0_d_1331_318" x="0" y="0" width="28" height="28" filterUnits="userSpaceOnUse" color-interpolation-filters="sRGB">
<feFlood flood-opacity="0" result="BackgroundImageFix"/>
<feColorMatrix in="SourceAlpha" type="matrix" values="0 0 0 0 0 0 0 0 0 0 0 0 0 0 0 0 0 0 127 0" result="hardAlpha"/>
<feMorphology radius="1" operator="dilate" in="SourceAlpha" result="effect1_dropShadow_1331_318"/>
<feOffset/>
<feComposite in2="hardAlpha" operator="out"/>
<feColorMatrix type="matrix" values="0 0 0 0 0 0 0 0 0 0 0 0 0 0 0 0 0 0 0.05 0"/>
<feBlend mode="normal" in2="BackgroundImageFix" result="effect1_dropShadow_1331_318"/>
<feBlend mode="normal" in="SourceGraphic" in2="effect1_dropShadow_1331_318" result="shape"/>
</filter>
</defs>
</svg>
