<svg width="32" height="32" viewBox="0 0 32 32" fill="none" xmlns="http://www.w3.org/2000/svg">
<rect x="0.125" y="0.125" width="31.75" height="31.75" rx="3.875" fill="white"/>
<rect x="0.125" y="0.125" width="31.75" height="31.75" rx="3.875" stroke="#A2A2A2" stroke-width="0.25"/>
<path d="M20.4997 12.9326C20.4772 12.9326 20.4622 12.9326 20.4397 12.9326H20.4022C18.9847 12.8876 17.9272 11.7926 17.9272 10.4426C17.9272 9.06257 19.0522 7.94507 20.4247 7.94507C21.7972 7.94507 22.9222 9.07007 22.9222 10.4426C22.9147 11.8001 21.8572 12.8951 20.5072 12.9401C20.5072 12.9326 20.5072 12.9326 20.4997 12.9326ZM20.4247 9.06257C19.6672 9.06257 19.0522 9.67757 19.0522 10.4351C19.0522 11.1776 19.6297 11.7776 20.3722 11.8076C20.3797 11.8001 20.4397 11.8001 20.5072 11.8076C21.2347 11.7701 21.7972 11.1701 21.8047 10.4351C21.8047 9.67757 21.1897 9.06257 20.4247 9.06257Z" fill="#2E75B6"/>
<path d="M20.5074 18.46C20.2149 18.46 19.9224 18.4375 19.6299 18.385C19.3224 18.3325 19.1199 18.04 19.1724 17.7325C19.2249 17.425 19.5174 17.2225 19.8249 17.275C20.7474 17.4325 21.7224 17.26 22.3749 16.825C22.7274 16.5925 22.9149 16.3 22.9149 16.0075C22.9149 15.715 22.7199 15.43 22.3749 15.1975C21.7224 14.7625 20.7324 14.59 19.8024 14.755C19.4949 14.815 19.2024 14.605 19.1499 14.2975C19.0974 13.99 19.2999 13.6975 19.6074 13.645C20.8299 13.4275 22.0974 13.66 22.9974 14.26C23.6574 14.7025 24.0399 15.3325 24.0399 16.0075C24.0399 16.675 23.6649 17.3125 22.9974 17.7625C22.3149 18.2125 21.4299 18.46 20.5074 18.46Z" fill="#2E75B6"/>
<path d="M11.4774 12.9325C11.4699 12.9325 11.4624 12.9325 11.4624 12.9325C10.1124 12.8875 9.05486 11.7925 9.04736 10.4425C9.04736 9.0625 10.1724 7.9375 11.5449 7.9375C12.9174 7.9375 14.0424 9.0625 14.0424 10.435C14.0424 11.7925 12.9849 12.8875 11.6349 12.9325L11.4774 12.37L11.5299 12.9325C11.5149 12.9325 11.4924 12.9325 11.4774 12.9325ZM11.5524 11.8075C11.5974 11.8075 11.6349 11.8075 11.6799 11.815C12.3474 11.785 12.9324 11.185 12.9324 10.4425C12.9324 9.685 12.3174 9.07 11.5599 9.07C10.8024 9.07 10.1874 9.685 10.1874 10.4425C10.1874 11.1775 10.7574 11.77 11.4849 11.815C11.4924 11.8075 11.5224 11.8075 11.5524 11.8075Z" fill="#2E75B6"/>
<path d="M11.47 18.46C10.5475 18.46 9.6625 18.2125 8.98 17.7625C8.32 17.32 7.9375 16.6825 7.9375 16.0075C7.9375 15.34 8.32 14.7025 8.98 14.26C9.88 13.66 11.1475 13.4275 12.37 13.645C12.6775 13.6975 12.88 13.99 12.8275 14.2975C12.775 14.605 12.4825 14.815 12.175 14.755C11.245 14.59 10.2625 14.7625 9.6025 15.1975C9.25 15.43 9.0625 15.715 9.0625 16.0075C9.0625 16.3 9.2575 16.5925 9.6025 16.825C10.255 17.26 11.23 17.4325 12.1525 17.275C12.46 17.2225 12.7525 17.4325 12.805 17.7325C12.8575 18.04 12.655 18.3325 12.3475 18.385C12.055 18.4375 11.7625 18.46 11.47 18.46Z" fill="#2E75B6"/>
<path d="M15.9997 18.535C15.9772 18.535 15.9622 18.535 15.9397 18.535H15.9022C14.4847 18.49 13.4272 17.395 13.4272 16.045C13.4272 14.665 14.5522 13.5475 15.9247 13.5475C17.2972 13.5475 18.4222 14.6725 18.4222 16.045C18.4147 17.4025 17.3572 18.4975 16.0072 18.5425C16.0072 18.535 16.0072 18.535 15.9997 18.535ZM15.9247 14.665C15.1672 14.665 14.5522 15.28 14.5522 16.0375C14.5522 16.78 15.1297 17.38 15.8722 17.41C15.8797 17.4025 15.9397 17.4025 16.0072 17.41C16.7347 17.3725 17.2972 16.7725 17.3047 16.0375C17.3047 15.2875 16.6897 14.665 15.9247 14.665Z" fill="#2E75B6"/>
<path d="M16 24.07C15.1 24.07 14.2 23.8375 13.5025 23.365C12.8425 22.9225 12.46 22.2925 12.46 21.6175C12.46 20.95 12.835 20.305 13.5025 19.8625C14.905 18.9325 17.1025 18.9325 18.4975 19.8625C19.1575 20.305 19.54 20.935 19.54 21.61C19.54 22.2775 19.165 22.9225 18.4975 23.365C17.8 23.83 16.9 24.07 16 24.07ZM14.125 20.8075C13.7725 21.04 13.585 21.3325 13.585 21.625C13.585 21.9175 13.78 22.2025 14.125 22.435C15.1375 23.1175 16.855 23.1175 17.8675 22.435C18.22 22.2025 18.4075 21.91 18.4075 21.6175C18.4075 21.325 18.2125 21.04 17.8675 20.8075C16.8625 20.125 15.145 20.1325 14.125 20.8075Z" fill="#2E75B6"/>
</svg>
