<svg width="32" height="32" viewBox="0 0 32 32" fill="none" xmlns="http://www.w3.org/2000/svg">
<rect x="0.125" y="0.125" width="31.75" height="31.75" rx="3.875" fill="white"/>
<rect x="0.125" y="0.125" width="31.75" height="31.75" rx="3.875" stroke="#A2A2A2" stroke-width="0.25"/>
<path d="M16 7C14.22 7 12.4799 7.52784 10.9999 8.51677C9.51983 9.50571 8.36628 10.9113 7.68509 12.5558C7.0039 14.2004 6.82567 16.01 7.17294 17.7558C7.5202 19.5016 8.37737 21.1053 9.63604 22.364C10.8947 23.6226 12.4984 24.4798 14.2442 24.8271C15.99 25.1743 17.7996 24.9961 19.4442 24.3149C21.0887 23.6337 22.4943 22.4802 23.4832 21.0001C24.4722 19.5201 25 17.78 25 16C25 13.6131 24.0518 11.3239 22.364 9.63604C20.6761 7.94821 18.3869 7 16 7ZM14.8825 11.5C14.8825 11.2016 15.001 10.9155 15.212 10.7045C15.423 10.4935 15.7091 10.375 16.0075 10.375C16.3059 10.375 16.592 10.4935 16.803 10.7045C17.014 10.9155 17.1325 11.2016 17.1325 11.5V16.6675C17.1325 16.8152 17.1034 16.9615 17.0469 17.098C16.9903 17.2345 16.9075 17.3585 16.803 17.463C16.6985 17.5675 16.5745 17.6503 16.438 17.7069C16.3015 17.7634 16.1552 17.7925 16.0075 17.7925C15.8598 17.7925 15.7135 17.7634 15.577 17.7069C15.4405 17.6503 15.3165 17.5675 15.212 17.463C15.1075 17.3585 15.0247 17.2345 14.9681 17.098C14.9116 16.9615 14.8825 16.8152 14.8825 16.6675V11.5ZM16 21.625C15.7449 21.625 15.4955 21.5493 15.2833 21.4076C15.0712 21.2658 14.9058 21.0644 14.8082 20.8287C14.7106 20.5929 14.685 20.3336 14.7348 20.0833C14.7846 19.8331 14.9074 19.6032 15.0878 19.4228C15.2682 19.2424 15.4981 19.1196 15.7483 19.0698C15.9986 19.02 16.2579 19.0456 16.4937 19.1432C16.7294 19.2408 16.9309 19.4062 17.0726 19.6183C17.2143 19.8305 17.29 20.0799 17.29 20.335C17.29 20.6771 17.1541 21.0052 16.9122 21.2472C16.6702 21.4891 16.3421 21.625 16 21.625Z" fill="#C0392B"/>
</svg>
