<svg width="12" height="12" viewBox="0 0 12 12" fill="none" xmlns="http://www.w3.org/2000/svg">
<path fill-rule="evenodd" clip-rule="evenodd" d="M4.95411 1.85944C5.41311 1.04344 6.58731 1.04344 7.04571 1.85944L10.3937 7.81144C10.8437 8.61184 10.2659 9.59944 9.34851 9.59944H2.65191C1.73391 9.59944 1.15611 8.61184 1.60611 7.81144L4.95411 1.85944ZM6.59991 7.80004C6.59991 8.13119 6.33106 8.40004 5.99991 8.40004C5.66876 8.40004 5.39991 8.13119 5.39991 7.80004C5.39991 7.46889 5.66876 7.20004 5.99991 7.20004C6.33106 7.20004 6.59991 7.46889 6.59991 7.80004ZM5.99991 3.00004C5.66854 3.00004 5.39991 3.26867 5.39991 3.60004V5.40004C5.39991 5.73119 5.66876 6.00004 5.99991 6.00004C6.33106 6.00004 6.59991 5.73119 6.59991 5.40004V3.60004C6.59991 3.26867 6.33128 3.00004 5.99991 3.00004Z" fill="#EF4444"/>
</svg>
