<svg width="18" height="18" viewBox="0 0 18 18" fill="none" xmlns="http://www.w3.org/2000/svg">
<path d="M4.5 1.5H10.5L15 6V15C15 15.3978 14.842 15.7794 14.5607 16.0607C14.2794 16.342 13.8978 16.5 13.5 16.5H4.5C4.10218 16.5 3.72064 16.342 3.43934 16.0607C3.15804 15.7794 3 15.3978 3 15V3C3 2.60218 3.15804 2.22064 3.43934 1.93934C3.72064 1.65804 4.10218 1.5 4.5 1.5Z" stroke="white" stroke-linecap="round" stroke-linejoin="round"/>
<path d="M10.5 1.5V6H15" stroke="white" stroke-linecap="round" stroke-linejoin="round"/>
<path d="M12 9.75H6" stroke="white" stroke-linecap="round" stroke-linejoin="round"/>
<path d="M12 12.75H6" stroke="white" stroke-linecap="round" stroke-linejoin="round"/>
<path d="M7.5 6.75H6.75H6" stroke="white" stroke-linecap="round" stroke-linejoin="round"/>
</svg>
