<svg width="16" height="16" viewBox="0 0 16 16" fill="none" xmlns="http://www.w3.org/2000/svg">
<path d="M10.56 14L12.8 11.76V13.6H13.6V10.4H10.4V11.2H12.24L10 13.44L10.56 14ZM1.6 14.4C1.16 14.4 0.783333 14.2433 0.47 13.93C0.156667 13.6167 0 13.24 0 12.8V1.6C0 1.16 0.156667 0.783333 0.47 0.47C0.783333 0.156667 1.16 0 1.6 0H12.8C13.24 0 13.6167 0.156667 13.93 0.47C14.2433 0.783333 14.4 1.16 14.4 1.6V6.96C14.1467 6.84 13.8867 6.73667 13.62 6.65C13.3533 6.56333 13.08 6.5 12.8 6.46V1.6H1.6V12.8H6.44C6.48 13.0933 6.54333 13.3733 6.63 13.64C6.71667 13.9067 6.82 14.16 6.94 14.4H1.6ZM1.6 12C1.6 12.1467 1.6 12.2833 1.6 12.41C1.6 12.5367 1.6 12.6667 1.6 12.8V1.6V6.46C1.6 6.43333 1.6 6.41667 1.6 6.41C1.6 6.40333 1.6 6.4 1.6 6.4C1.6 6.4 1.6 6.94667 1.6 8.04C1.6 9.13333 1.6 10.4533 1.6 12ZM3.2 11.2H6.46C6.5 10.92 6.56333 10.6467 6.65 10.38C6.73667 10.1133 6.83333 9.85333 6.94 9.6H3.2V11.2ZM3.2 8H8.08C8.50667 7.6 8.98333 7.26667 9.51 7C10.0367 6.73333 10.6 6.55333 11.2 6.46V6.4H3.2V8ZM3.2 4.8H11.2V3.2H3.2V4.8ZM12 16C10.8933 16 9.95 15.61 9.17 14.83C8.39 14.05 8 13.1067 8 12C8 10.8933 8.39 9.95 9.17 9.17C9.95 8.39 10.8933 8 12 8C13.1067 8 14.05 8.39 14.83 9.17C15.61 9.95 16 10.8933 16 12C16 13.1067 15.61 14.05 14.83 14.83C14.05 15.61 13.1067 16 12 16Z" fill="#1D3478"/>
</svg>
