<svg width="32" height="32" viewBox="0 0 32 32" fill="none" xmlns="http://www.w3.org/2000/svg">
<rect x="0.125" y="0.125" width="31.75" height="31.75" rx="3.875" fill="white"/>
<rect x="0.125" y="0.125" width="31.75" height="31.75" rx="3.875" stroke="#A2A2A2" stroke-width="0.25"/>
<path d="M16 24.0625C15.1525 24.0625 14.3425 23.815 13.735 23.3575L10.51 20.95C9.65505 20.3125 8.98755 18.985 8.98755 17.92V12.34C8.98755 11.185 9.83505 9.95496 10.9225 9.54996L14.665 8.14746C15.4075 7.86996 16.5775 7.86996 17.32 8.14746L21.07 9.54996C22.1575 9.95496 23.005 11.185 23.005 12.34V14.9125C23.005 15.22 22.75 15.475 22.4425 15.475C22.135 15.475 21.88 15.22 21.88 14.9125V12.34C21.88 11.6575 21.3175 10.8475 20.6725 10.6L16.93 9.19746C16.435 9.00996 15.5575 9.00996 15.0625 9.19746L11.32 10.6075C10.675 10.8475 10.1125 11.6575 10.1125 12.3475V17.92C10.1125 18.6325 10.615 19.63 11.1775 20.05L14.4025 22.4575C14.815 22.765 15.3925 22.9375 15.9925 22.9375C16.3 22.9375 16.555 23.1925 16.555 23.5C16.555 23.8075 16.3075 24.0625 16 24.0625Z" fill="#E67422"/>
<path d="M19 22.5625C17.035 22.5625 15.4375 20.965 15.4375 19C15.4375 17.035 17.035 15.4375 19 15.4375C20.965 15.4375 22.5625 17.035 22.5625 19C22.5625 20.965 20.965 22.5625 19 22.5625ZM19 16.57C17.6575 16.57 16.5625 17.665 16.5625 19.0075C16.5625 20.35 17.6575 21.445 19 21.445C20.3425 21.445 21.4375 20.35 21.4375 19.0075C21.4375 17.665 20.3425 16.57 19 16.57Z" fill="#E67422"/>
<path d="M22.75 23.5C22.6975 23.5 22.6525 23.4925 22.6 23.485C22.555 23.4775 22.51 23.4625 22.465 23.44C22.42 23.425 22.375 23.4025 22.33 23.3725C22.2925 23.3425 22.255 23.3125 22.2175 23.2825C22.0825 23.14 22 22.945 22 22.75C22 22.6525 22.0225 22.555 22.06 22.465C22.0975 22.375 22.15 22.2925 22.2175 22.2175C22.495 21.94 23.005 21.94 23.2825 22.2175C23.35 22.2925 23.4025 22.375 23.44 22.465C23.4775 22.555 23.5 22.6525 23.5 22.75C23.5 22.945 23.4175 23.14 23.2825 23.2825C23.14 23.4175 22.945 23.5 22.75 23.5Z" fill="#E67422"/>
</svg>
