<svg width="34" height="34" viewBox="0 0 34 34" fill="none" xmlns="http://www.w3.org/2000/svg">
<g filter="url(#filter0_d_391_2468)">
<path d="M1 17C1 9.45753 1 5.68629 3.34315 3.34315C5.68629 1 9.45753 1 17 1C24.5425 1 28.3137 1 30.6569 3.34315C33 5.68629 33 9.45753 33 17C33 24.5425 33 28.3137 30.6569 30.6569C28.3137 33 24.5425 33 17 33C9.45753 33 5.68629 33 3.34315 30.6569C1 28.3137 1 24.5425 1 17Z" fill="white"/>
<path d="M16.9998 25.0701C16.1823 25.0701 15.3723 24.8301 14.7348 24.3576L11.5098 21.9501C10.6548 21.3126 9.9873 19.9776 9.9873 18.9201V13.3401C9.9873 12.1851 10.8348 10.9551 11.9223 10.5501L15.6648 9.14758C16.4073 8.87008 17.5773 8.87008 18.3198 9.14758L22.0623 10.5501C23.1498 10.9551 23.9973 12.1851 23.9973 13.3401V18.9126C23.9973 19.9776 23.3298 21.3051 22.4748 21.9426L19.2498 24.3501C18.6273 24.8301 17.8173 25.0701 16.9998 25.0701ZM16.0623 10.2051L12.3198 11.6076C11.6823 11.8476 11.1198 12.6576 11.1198 13.3476V18.9201C11.1198 19.6326 11.6223 20.6301 12.1848 21.0501L15.4098 23.4576C16.2723 24.1026 17.7273 24.1026 18.5973 23.4576L21.8223 21.0501C22.3923 20.6226 22.8873 19.6326 22.8873 18.9201V13.3401C22.8873 12.6576 22.3248 11.8476 21.6873 11.6001L17.9448 10.1976C17.4348 10.0176 16.5648 10.0176 16.0623 10.2051Z" fill="#E67E22"/>
<path d="M17 20.1875C15.035 20.1875 13.4375 18.59 13.4375 16.625C13.4375 14.66 15.035 13.0625 17 13.0625C18.965 13.0625 20.5625 14.66 20.5625 16.625C20.5625 18.59 18.965 20.1875 17 20.1875ZM17 14.1875C15.6575 14.1875 14.5625 15.2825 14.5625 16.625C14.5625 17.9675 15.6575 19.0625 17 19.0625C18.3425 19.0625 19.4375 17.9675 19.4375 16.625C19.4375 15.2825 18.3425 14.1875 17 14.1875Z" fill="#E67E22"/>
<path d="M16.2499 17.9376C16.0624 17.9376 15.8749 17.8401 15.7699 17.6676C15.6124 17.3976 15.6949 17.0526 15.9649 16.8951L16.5349 16.5501C16.5949 16.5126 16.6249 16.4526 16.6249 16.3926V15.6951C16.6249 15.3876 16.8799 15.1326 17.1874 15.1326C17.4949 15.1326 17.7499 15.3801 17.7499 15.6876V16.3851C17.7499 16.8426 17.5024 17.2776 17.1124 17.5101L16.5349 17.8551C16.4524 17.9151 16.3474 17.9376 16.2499 17.9376Z" fill="#E67E22"/>
</g>
<defs>
<filter id="filter0_d_391_2468" x="0" y="0" width="34" height="34" filterUnits="userSpaceOnUse" color-interpolation-filters="sRGB">
<feFlood flood-opacity="0" result="BackgroundImageFix"/>
<feColorMatrix in="SourceAlpha" type="matrix" values="0 0 0 0 0 0 0 0 0 0 0 0 0 0 0 0 0 0 127 0" result="hardAlpha"/>
<feMorphology radius="1" operator="dilate" in="SourceAlpha" result="effect1_dropShadow_391_2468"/>
<feOffset/>
<feComposite in2="hardAlpha" operator="out"/>
<feColorMatrix type="matrix" values="0 0 0 0 0 0 0 0 0 0 0 0 0 0 0 0 0 0 0.05 0"/>
<feBlend mode="normal" in2="BackgroundImageFix" result="effect1_dropShadow_391_2468"/>
<feBlend mode="normal" in="SourceGraphic" in2="effect1_dropShadow_391_2468" result="shape"/>
</filter>
</defs>
</svg>
