<svg width="34" height="34" viewBox="0 0 34 34" fill="none" xmlns="http://www.w3.org/2000/svg">
<g filter="url(#filter0_d_391_2551)">
<path d="M1 17C1 9.45753 1 5.68629 3.34315 3.34315C5.68629 1 9.45753 1 17 1C24.5425 1 28.3137 1 30.6569 3.34315C33 5.68629 33 9.45753 33 17C33 24.5425 33 28.3137 30.6569 30.6569C28.3137 33 24.5425 33 17 33C9.45753 33 5.68629 33 3.34315 30.6569C1 28.3137 1 24.5425 1 17Z" fill="white"/>
<g clip-path="url(#clip0_391_2551)">
<path d="M17 8C19.3869 8 21.6761 8.94821 23.364 10.636C25.0518 12.3239 26 14.6131 26 17C26 19.3869 25.0518 21.6761 23.364 23.364C21.6761 25.0518 19.3869 26 17 26C14.6131 26 12.3239 25.0518 10.636 23.364C8.94821 21.6761 8 19.3869 8 17C8 14.6131 8.94821 12.3239 10.636 10.636C12.3239 8.94821 14.6131 8 17 8ZM18.3499 13.5256C19.0184 13.5256 19.561 13.0615 19.561 12.3737C19.561 11.6859 19.0171 11.2218 18.3499 11.2218C17.6814 11.2218 17.1414 11.6859 17.1414 12.3737C17.1414 13.0615 17.6814 13.5256 18.3499 13.5256ZM18.5852 20.7598C18.5852 20.6222 18.6327 20.2648 18.6057 20.0617L17.549 21.2779C17.3304 21.508 17.0566 21.6675 16.928 21.625C16.8697 21.6036 16.8209 21.562 16.7905 21.5078C16.7601 21.4536 16.7501 21.3903 16.7622 21.3293L18.5235 15.7652C18.6675 15.0594 18.2715 14.4153 17.432 14.333C16.5462 14.333 15.2426 15.2316 14.4493 16.372C14.4493 16.5082 14.4236 16.8477 14.4506 17.0508L15.5061 15.8333C15.7247 15.6057 15.9792 15.445 16.1078 15.4888C16.1711 15.5115 16.223 15.5581 16.2523 15.6187C16.2817 15.6793 16.2861 15.7489 16.2646 15.8127L14.5187 21.3499C14.3169 21.9979 14.6987 22.633 15.6244 22.7769C16.9871 22.7769 17.7919 21.9002 18.5865 20.7598H18.5852Z" fill="#118BE8"/>
</g>
</g>
<defs>
<filter id="filter0_d_391_2551" x="0" y="0" width="34" height="34" filterUnits="userSpaceOnUse" color-interpolation-filters="sRGB">
<feFlood flood-opacity="0" result="BackgroundImageFix"/>
<feColorMatrix in="SourceAlpha" type="matrix" values="0 0 0 0 0 0 0 0 0 0 0 0 0 0 0 0 0 0 127 0" result="hardAlpha"/>
<feMorphology radius="1" operator="dilate" in="SourceAlpha" result="effect1_dropShadow_391_2551"/>
<feOffset/>
<feComposite in2="hardAlpha" operator="out"/>
<feColorMatrix type="matrix" values="0 0 0 0 0 0 0 0 0 0 0 0 0 0 0 0 0 0 0.05 0"/>
<feBlend mode="normal" in2="BackgroundImageFix" result="effect1_dropShadow_391_2551"/>
<feBlend mode="normal" in="SourceGraphic" in2="effect1_dropShadow_391_2551" result="shape"/>
</filter>
<clipPath id="clip0_391_2551">
<rect width="18" height="18" fill="white" transform="translate(8 8)"/>
</clipPath>
</defs>
</svg>
