<svg width="16" height="16" viewBox="0 0 16 16" fill="none" xmlns="http://www.w3.org/2000/svg">
<path d="M11.7712 11.1047L8.9425 13.9334C8.69267 14.1835 8.35367 14.324 8.00017 14.324C7.64667 14.324 7.30767 14.1835 7.05784 13.9334L4.2285 11.1047C2.14579 9.02189 2.14584 5.64506 4.22863 3.56231C6.31142 1.47956 9.68825 1.47956 11.771 3.56231C13.8538 5.64506 13.8539 9.02189 11.7712 11.1047V11.1047" stroke="#A2A2A2" stroke-width="1.33333" stroke-linecap="round" stroke-linejoin="round"/>
<path d="M10 7.33337C10 8.4372 9.10383 9.33337 8 9.33337C6.89617 9.33337 6 8.4372 6 7.33337C6 6.22954 6.89617 5.33337 8 5.33337C9.10383 5.33337 10 6.22954 10 7.33337V7.33337" stroke="#A2A2A2" stroke-width="1.33333" stroke-linecap="round" stroke-linejoin="round"/>
</svg>
