<svg width="16" height="16" viewBox="0 0 16 16" fill="none" xmlns="http://www.w3.org/2000/svg">
<path d="M5.3335 3.83337C5.06016 3.83337 4.8335 3.60671 4.8335 3.33337V1.33337C4.8335 1.06004 5.06016 0.833374 5.3335 0.833374C5.60683 0.833374 5.8335 1.06004 5.8335 1.33337V3.33337C5.8335 3.60671 5.60683 3.83337 5.3335 3.83337Z" fill="#A2A2A2"/>
<path d="M10.6665 3.83337C10.3932 3.83337 10.1665 3.60671 10.1665 3.33337V1.33337C10.1665 1.06004 10.3932 0.833374 10.6665 0.833374C10.9398 0.833374 11.1665 1.06004 11.1665 1.33337V3.33337C11.1665 3.60671 10.9398 3.83337 10.6665 3.83337Z" fill="#A2A2A2"/>
<path d="M9.99984 9.16663H4.6665C4.39317 9.16663 4.1665 8.93996 4.1665 8.66663C4.1665 8.39329 4.39317 8.16663 4.6665 8.16663H9.99984C10.2732 8.16663 10.4998 8.39329 10.4998 8.66663C10.4998 8.93996 10.2732 9.16663 9.99984 9.16663Z" fill="#A2A2A2"/>
<path d="M7.99984 11.8334H4.6665C4.39317 11.8334 4.1665 11.6067 4.1665 11.3334C4.1665 11.06 4.39317 10.8334 4.6665 10.8334H7.99984C8.27317 10.8334 8.49984 11.06 8.49984 11.3334C8.49984 11.6067 8.27317 11.8334 7.99984 11.8334Z" fill="#A2A2A2"/>
<path d="M10 15.1667H6C2.25333 15.1667 1.5 13.4 1.5 10.5467V6.43337C1.5 3.27337 2.56667 1.98671 5.30667 1.83337H10.6667C10.6733 1.83337 10.6867 1.83337 10.6933 1.83337C13.4333 1.98671 14.5 3.27337 14.5 6.43337V10.5467C14.5 13.4 13.7467 15.1667 10 15.1667ZM5.33333 2.83337C3.46667 2.94004 2.5 3.52671 2.5 6.43337V10.5467C2.5 13.1 2.98667 14.1667 6 14.1667H10C13.0133 14.1667 13.5 13.1 13.5 10.5467V6.43337C13.5 3.53337 12.54 2.94004 10.6533 2.83337H5.33333Z" fill="#A2A2A2"/>
</svg>
