<svg width="189" height="143" viewBox="0 0 189 143" fill="none" xmlns="http://www.w3.org/2000/svg">
<path d="M42.0393 35.2961C34.7608 47.048 35.7056 58.9875 36.708 71.6546C37.4388 80.8865 40.6367 121.277 64.8843 131.017C75.0868 135.115 91.3689 129.599 123.518 118.402C141.084 112.284 148.385 112.168 156.263 105.788C166.016 97.8894 177.451 82.5972 173.015 71.6546C168.972 61.6787 155.885 65.5538 139.51 53.8462C119.512 39.5493 125.48 24.0827 109.811 15.261C90.5551 4.42121 55.7033 13.2328 42.0393 35.2961Z" fill="#0FBA64" fill-opacity="0.25"/>
<path d="M69.3121 123.029C49.439 110.877 44.6645 90.7777 43.7539 86.4497C39.9027 68.1408 44.1405 41.7255 65.3186 28.8575C80.6528 19.54 100.203 20.1603 113.24 26.5227C118.426 29.0536 119.734 31.1028 137.201 45.9795C154.912 61.064 156.74 59.9744 158.766 63.8798C167.237 80.2173 152.525 112.645 126.019 125.363C124.442 126.121 95.8439 139.252 69.3121 123.029Z" fill="#27AE60" fill-opacity="0.25"/>
<path d="M137.945 35.8844C136.018 39.0745 144.754 49.4567 148.596 48.2114C150.984 47.437 152.633 41.7977 149.929 37.83C146.697 33.0896 139.267 33.6959 137.945 35.8844Z" fill="#27AE60" fill-opacity="0.25"/>
<path d="M37.3636 29.2465C37.3636 30.3213 36.4698 31.1921 35.3668 31.1921C34.2639 31.1921 33.3701 30.3213 33.3701 29.2465C33.3701 28.1717 34.2639 27.3008 35.3668 27.3008C36.4698 27.3008 37.3636 28.1717 37.3636 29.2465Z" fill="#00A747" fill-opacity="0.25"/>
<path d="M43.7543 117.58C43.7543 118.44 43.0387 119.137 42.157 119.137C41.2752 119.137 40.5596 118.44 40.5596 117.58C40.5596 116.721 41.2752 116.024 42.157 116.024C43.0387 116.024 43.7543 116.721 43.7543 117.58Z" fill="#00A747" fill-opacity="0.25"/>
<path d="M18.9944 84.5039C18.9944 85.5787 18.1007 86.4496 16.9977 86.4496C15.8947 86.4496 15.001 85.5787 15.001 84.5039C15.001 83.4291 15.8947 82.5582 16.9977 82.5582C18.1007 82.5582 18.9944 83.4291 18.9944 84.5039Z" fill="#0FBA64" fill-opacity="0.25"/>
<path d="M166.754 109.019C166.754 109.879 166.039 110.576 165.157 110.576C164.275 110.576 163.56 109.879 163.56 109.019C163.56 108.16 164.275 107.463 165.157 107.463C166.039 107.463 166.754 108.16 166.754 109.019Z" fill="#006733"/>
<path d="M128.413 20.6855C128.413 21.3307 127.876 21.8529 127.215 21.8529C126.553 21.8529 126.017 21.3307 126.017 20.6855C126.017 20.0403 126.553 19.5181 127.215 19.5181C127.876 19.5181 128.413 20.0403 128.413 20.6855Z" fill="#006733"/>
<path d="M170.743 37.4183C170.743 37.8479 170.386 38.1966 169.944 38.1966C169.503 38.1966 169.146 37.8479 169.146 37.4183C169.146 36.9887 169.503 36.64 169.944 36.64C170.386 36.64 170.743 36.9887 170.743 37.4183Z" fill="#F88380"/>
<path d="M29.3775 55.7079C29.3775 56.3531 28.8416 56.8753 28.1795 56.8753C27.5174 56.8753 26.9814 56.3531 26.9814 55.7079C26.9814 55.0627 27.5174 54.5405 28.1795 54.5405C28.8416 54.5405 29.3775 55.0627 29.3775 55.7079Z" fill="#006733"/>
<path d="M30.9726 69.3274C30.9726 71.0467 29.5421 72.4405 27.7778 72.4405C26.0135 72.4405 24.583 71.0467 24.583 69.3274C24.583 67.6082 26.0135 66.2144 27.7778 66.2144C29.5421 66.2144 30.9726 67.6082 30.9726 69.3274Z" fill="#27AE60" fill-opacity="0.25"/>
<path d="M136.403 29.6356C136.403 30.9252 135.33 31.9704 134.006 31.9704C132.683 31.9704 131.61 30.9252 131.61 29.6356C131.61 28.346 132.683 27.3008 134.006 27.3008C135.33 27.3008 136.403 28.346 136.403 29.6356Z" fill="#27AE60" fill-opacity="0.25"/>
<path d="M26.8118 91.4002C27.6481 96.0052 33.052 98.4614 34.4873 97.4614C36.6733 95.9367 32.4682 84.423 29.5186 84.5483C27.8885 84.6175 26.2408 88.2575 26.8118 91.4002Z" fill="#27AE60" fill-opacity="0.25"/>
<path d="M102.115 42.2955L96.8345 44.1009C95.6987 44.493 94.4677 44.493 93.3268 44.1063L88.0513 42.3051C85.7128 41.5067 83.1534 42.3843 81.7056 44.4781L78.4476 49.2012C77.7455 50.2231 76.7506 50.9822 75.6142 51.3742L70.3336 53.185C68.0002 53.9834 66.4159 56.2762 66.4159 58.8657L66.421 64.7048C66.421 65.965 66.0433 67.1948 65.3412 68.2173L62.0832 72.9404C60.6359 75.0342 60.6405 77.8716 62.0877 79.9599L65.3509 84.6831C66.0575 85.7056 66.4352 86.9306 66.4352 88.1956L66.4397 94.03C66.4448 96.6194 68.0285 98.9122 70.367 99.71L75.6431 101.511C76.784 101.898 77.7783 102.657 78.4855 103.679L81.7481 108.398C83.1953 110.491 85.7552 111.364 88.0937 110.566L93.3692 108.755C94.5102 108.368 95.7366 108.362 96.8775 108.755L102.157 110.555C104.496 111.354 107.056 110.476 108.499 108.382L111.756 103.654C112.463 102.633 113.454 101.874 114.595 101.481L119.87 99.6755C122.209 98.8717 123.793 96.5801 123.788 93.9906L123.783 88.1509C123.783 86.8907 124.165 85.6603 124.868 84.6438L128.125 79.9153C129.568 77.8221 129.568 74.9889 128.121 72.8952L124.859 68.1726C124.151 67.1555 123.769 65.9251 123.769 64.6649L123.765 58.8257C123.765 56.2357 122.18 53.9441 119.842 53.1504L114.561 51.3492C113.42 50.9572 112.431 50.1981 111.723 49.1816L108.461 44.4584C107.372 42.8842 105.652 42 103.873 42C103.287 42 102.694 42.0959 102.115 42.2955Z" fill="url(#paint0_linear_1849_6124)"/>
<path d="M71.4746 76.8742C71.4746 90.1946 81.781 101.039 94.4394 101.039C107.098 101.039 117.404 90.1946 117.404 76.8742C117.404 63.5537 107.098 52.709 94.4394 52.709C81.781 52.709 71.4746 63.5537 71.4746 76.8742Z" fill="url(#paint1_linear_1849_6124)"/>
<path d="M94.4396 51.0763C80.8972 51.0763 69.9238 62.6235 69.9238 76.8741C69.9238 91.1252 80.8972 102.672 94.4396 102.672C107.982 102.672 118.955 91.1252 118.955 76.8741C118.955 62.6235 107.982 51.0763 94.4396 51.0763ZM94.4396 100.145C82.2499 100.145 72.3252 89.7018 72.3252 76.8741C72.3252 64.047 82.2499 53.6038 94.4396 53.6038C106.63 53.6038 116.554 64.047 116.554 76.8741C116.554 89.7018 106.63 100.145 94.4396 100.145Z" fill="white"/>
<path d="M94.4409 50.0842C80.3776 50.0842 68.9824 62.0748 68.9824 76.8735C68.9824 91.6728 80.3776 103.664 94.4409 103.664C108.504 103.664 119.899 91.6728 119.899 76.8735C119.899 62.0748 108.504 50.0842 94.4409 50.0842ZM94.4409 101.039C81.7824 101.039 71.4761 90.1945 71.4761 76.8735C71.4761 63.553 81.7824 52.7089 94.4409 52.7089C107.1 52.7089 117.406 63.553 117.406 76.8735C117.406 90.1945 107.1 101.039 94.4409 101.039Z" fill="#27AE60"/>
<mask id="mask0_1849_6124" style="mask-type:luminance" maskUnits="userSpaceOnUse" x="74" y="65" width="38" height="28">
<path d="M79.2065 65.8263L74.5352 92.2157L111.051 91.6199L110.91 65.8263H79.2065Z" fill="white"/>
</mask>
<g mask="url(#mask0_1849_6124)">
<path d="M108.97 73.3761L88.6587 90.744C87.8863 91.4048 86.7522 91.2898 86.1141 90.486L78.8183 81.2947C77.905 80.1442 78.0516 78.4323 79.1456 77.473C80.239 76.5149 81.864 76.671 82.7745 77.8222L86.7958 82.9041C87.4334 83.7102 88.5681 83.827 89.3415 83.165L105.717 69.1635C106.823 68.2185 108.446 68.3955 109.344 69.5586C110.243 70.7216 110.075 72.4311 108.97 73.3761Z" fill="#27AE60"/>
<path d="M108.97 71.3915L88.6587 88.7594C87.8863 89.4202 86.7522 89.3052 86.1141 88.5014L78.8183 79.3101C77.905 78.1595 78.0516 76.4477 79.1456 75.4884C80.239 74.5303 81.864 74.6864 82.7745 75.8376L86.7958 80.9194C87.4334 81.7256 88.5681 81.8424 89.3415 81.1804L105.717 67.1789C106.823 66.2339 108.446 66.4109 109.344 67.574C110.243 68.737 110.075 70.4465 108.97 71.3915Z" fill="white"/>
</g>
<defs>
<linearGradient id="paint0_linear_1849_6124" x1="94.0906" y1="46.0457" x2="95.0762" y2="106.223" gradientUnits="userSpaceOnUse">
<stop stop-color="#27AE60"/>
<stop offset="0.48" stop-color="#006733"/>
<stop offset="1" stop-color="#07E098"/>
</linearGradient>
<linearGradient id="paint1_linear_1849_6124" x1="94.4938" y1="51.8492" x2="95.1659" y2="101.6" gradientUnits="userSpaceOnUse">
<stop stop-color="#07E098"/>
<stop offset="0.48" stop-color="#27AE60"/>
<stop offset="1" stop-color="#006733"/>
</linearGradient>
</defs>
</svg>
