<svg width="32" height="32" viewBox="0 0 32 32" fill="none" xmlns="http://www.w3.org/2000/svg">
<rect x="0.125" y="0.125" width="31.75" height="31.75" rx="3.875" fill="white"/>
<rect x="0.125" y="0.125" width="31.75" height="31.75" rx="3.875" stroke="#A2A2A2" stroke-width="0.25"/>
<path d="M16.0074 24.0626C15.5349 24.0626 15.0624 23.9051 14.6949 23.5901L13.5099 22.5701C13.3899 22.4651 13.0899 22.36 12.9324 22.36H11.6349C10.5249 22.36 9.62492 21.4601 9.62492 20.3501V19.0675C9.62492 18.91 9.51992 18.6175 9.41492 18.4975L8.40241 17.305C7.78741 16.5775 7.78741 15.4301 8.40241 14.7026L9.41492 13.5101C9.51992 13.3901 9.62492 13.0976 9.62492 12.9401V11.6575C9.62492 10.5475 10.5249 9.64758 11.6349 9.64758H12.9324C13.0899 9.64758 13.3899 9.53506 13.5099 9.43756L14.6949 8.41757C15.4299 7.78757 16.5774 7.78757 17.3124 8.41757L18.4974 9.43756C18.6174 9.54256 18.9174 9.64758 19.0749 9.64758H20.3499C21.4599 9.64758 22.3599 10.5475 22.3599 11.6575V12.9326C22.3599 13.0901 22.4724 13.3901 22.5774 13.5101L23.5899 14.6951C24.2199 15.4301 24.2199 16.5776 23.5899 17.3126L22.5774 18.4975C22.4724 18.6175 22.3674 18.9175 22.3674 19.075V20.3501C22.3674 21.4601 21.4674 22.36 20.3574 22.36H19.0824C18.9249 22.36 18.6249 22.4726 18.5049 22.5701L17.3199 23.5901C16.9449 23.9051 16.4724 24.0626 16.0074 24.0626ZM11.6349 10.7651C11.1474 10.7651 10.7499 11.1625 10.7499 11.65V12.9326C10.7499 13.3601 10.5474 13.9076 10.2774 14.2301L9.26491 15.4225C9.00241 15.73 9.00241 16.2626 9.26491 16.5701L10.2774 17.7625C10.5549 18.0925 10.7574 18.64 10.7574 19.06V20.3426C10.7574 20.8301 11.1549 21.2275 11.6424 21.2275H12.9399C13.3749 21.2275 13.9224 21.4301 14.2524 21.7151L15.4374 22.735C15.7449 22.9975 16.2849 22.9975 16.5924 22.735L17.7774 21.7151C18.1074 21.4376 18.6549 21.2275 19.0899 21.2275H20.3649C20.8524 21.2275 21.2499 20.8301 21.2499 20.3426V19.0675C21.2499 18.6325 21.4524 18.085 21.7374 17.755L22.7499 16.5701C23.0124 16.2626 23.0124 15.7225 22.7499 15.415L21.7374 14.2301C21.4599 13.9001 21.2499 13.3526 21.2499 12.9176V11.6425C21.2499 11.155 20.8524 10.7576 20.3649 10.7576H19.0899C18.6624 10.7576 18.1074 10.555 17.7774 10.27L16.5924 9.25006C16.2849 8.98756 15.7449 8.98756 15.4374 9.25006L14.2524 10.27C13.9224 10.5475 13.3749 10.7576 12.9399 10.7576H11.6349V10.7651Z" fill="#27AE60"/>
<path d="M17.4998 19.7275H16.1648C15.8498 19.7275 15.3773 19.63 15.0998 19.3525L14.0648 18.5575L14.7548 17.665L15.8423 18.505C15.9173 18.5575 16.0523 18.595 16.1648 18.595H17.4998C17.6798 18.595 17.8973 18.4375 17.9348 18.28L18.7898 15.6775C18.8123 15.61 18.8123 15.565 18.8048 15.55C18.7898 15.5275 18.7373 15.505 18.6623 15.505H17.2598C16.9898 15.505 16.7423 15.3925 16.5623 15.19C16.3898 14.9875 16.3073 14.7175 16.3448 14.44L16.5248 13.3075C16.5398 13.2475 16.4948 13.1725 16.4498 13.1575C16.4048 13.15 16.3373 13.165 16.3148 13.1875L14.8823 15.3175L13.9448 14.6875L15.3848 12.55C15.6848 12.1 16.3148 11.905 16.8248 12.0925C17.3948 12.28 17.7623 12.9251 17.6348 13.5101L17.4998 14.365H18.6623C19.1048 14.365 19.4948 14.5525 19.7273 14.8825C19.9523 15.205 20.0048 15.625 19.8623 16.0225L19.0223 18.5726C18.8648 19.2176 18.1973 19.7275 17.4998 19.7275Z" fill="#27AE60"/>
<path d="M13.6752 19.3449H13.3227C12.2202 19.3449 12.0552 18.5724 12.0552 18.1149V14.68C12.0552 14.2225 12.2202 13.45 13.3227 13.45H13.6752C14.7777 13.45 14.9427 14.2225 14.9427 14.68V18.1149C14.9427 18.5724 14.7777 19.3449 13.6752 19.3449ZM13.1952 18.2124C13.2252 18.2199 13.2702 18.2199 13.3302 18.2199H13.6827C13.7427 18.2199 13.7877 18.2199 13.8177 18.2124C13.8177 18.1899 13.8252 18.1599 13.8252 18.1149V14.68C13.8252 14.635 13.8252 14.605 13.8177 14.5825C13.7877 14.575 13.7427 14.575 13.6827 14.575H13.3302C13.2702 14.575 13.2252 14.575 13.1952 14.5825C13.1952 14.605 13.1877 14.635 13.1877 14.68V18.1149C13.1877 18.1599 13.1877 18.1899 13.1952 18.2124Z" fill="#27AE60"/>
</svg>
