<svg width="28" height="28" viewBox="0 0 28 28" fill="none" xmlns="http://www.w3.org/2000/svg">
<g filter="url(#filter0_d_1331_246)">
<path d="M1 14C1 9.33074 1 6.9961 1.94463 5.22883C2.6905 3.83341 3.83341 2.6905 5.22883 1.94463C6.9961 1 9.33074 1 14 1C18.6693 1 21.0039 1 22.7712 1.94463C24.1666 2.6905 25.3095 3.83341 26.0554 5.22883C27 6.9961 27 9.33074 27 14C27 18.6693 27 21.0039 26.0554 22.7712C25.3095 24.1666 24.1666 25.3095 22.7712 26.0554C21.0039 27 18.6693 27 14 27C9.33074 27 6.9961 27 5.22883 26.0554C3.83341 25.3095 2.6905 24.1666 1.94463 22.7712C1 21.0039 1 18.6693 1 14Z" fill="white"/>
<mask id="mask0_1331_246" style="mask-type:luminance" maskUnits="userSpaceOnUse" x="8" y="8" width="12" height="12">
<rect x="8" y="8" width="12" height="12" fill="white"/>
</mask>
<g mask="url(#mask0_1331_246)">
<path d="M13.1262 10.9421L13.2654 13.0121L13.3345 14.0525C13.3352 14.1595 13.352 14.2658 13.3843 14.3679C13.4678 14.5662 13.6686 14.6922 13.887 14.6834L17.2156 14.4657C17.3598 14.4633 17.499 14.5172 17.6026 14.6156C17.6889 14.6975 17.7447 14.8047 17.7623 14.92L17.7682 14.99C17.6304 16.8974 16.2296 18.4883 14.3262 18.8989C12.4228 19.3096 10.4709 18.4421 9.53035 16.7674C9.25919 16.2808 9.08982 15.7461 9.03219 15.1944C9.00811 15.0311 8.99751 14.8662 9.00049 14.7012C8.99751 12.6563 10.4537 10.8884 12.4922 10.4622C12.7375 10.424 12.978 10.5539 13.0764 10.7777C13.1018 10.8295 13.1186 10.885 13.1262 10.9421Z" fill="#202046"/>
<path opacity="0.4" d="M19.0003 12.9061L18.9968 12.9224L18.9867 12.9461L18.9881 13.0112C18.9829 13.0973 18.9496 13.1803 18.8923 13.2473C18.8325 13.317 18.7509 13.3645 18.6611 13.3829L18.6063 13.3905L14.7659 13.6393C14.6381 13.6519 14.5109 13.6107 14.416 13.526C14.3368 13.4553 14.2862 13.3601 14.2719 13.2573L14.0141 9.42253C14.0096 9.40956 14.0096 9.39551 14.0141 9.38254C14.0176 9.27683 14.0642 9.17692 14.1433 9.10511C14.2224 9.03331 14.3276 8.9956 14.4353 9.00041C16.7152 9.05841 18.6314 10.6979 19.0003 12.9061Z" fill="#202046"/>
</g>
</g>
<defs>
<filter id="filter0_d_1331_246" x="0" y="0" width="28" height="28" filterUnits="userSpaceOnUse" color-interpolation-filters="sRGB">
<feFlood flood-opacity="0" result="BackgroundImageFix"/>
<feColorMatrix in="SourceAlpha" type="matrix" values="0 0 0 0 0 0 0 0 0 0 0 0 0 0 0 0 0 0 127 0" result="hardAlpha"/>
<feMorphology radius="1" operator="dilate" in="SourceAlpha" result="effect1_dropShadow_1331_246"/>
<feOffset/>
<feComposite in2="hardAlpha" operator="out"/>
<feColorMatrix type="matrix" values="0 0 0 0 0 0 0 0 0 0 0 0 0 0 0 0 0 0 0.05 0"/>
<feBlend mode="normal" in2="BackgroundImageFix" result="effect1_dropShadow_1331_246"/>
<feBlend mode="normal" in="SourceGraphic" in2="effect1_dropShadow_1331_246" result="shape"/>
</filter>
</defs>
</svg>
