<svg width="16" height="16" viewBox="0 0 16 16" fill="none" xmlns="http://www.w3.org/2000/svg">
<path d="M8.00008 8.50004C5.88675 8.50004 4.16675 6.78004 4.16675 4.66671C4.16675 2.55337 5.88675 0.833374 8.00008 0.833374C10.1134 0.833374 11.8334 2.55337 11.8334 4.66671C11.8334 6.78004 10.1134 8.50004 8.00008 8.50004ZM8.00008 1.83337C6.44008 1.83337 5.16675 3.10671 5.16675 4.66671C5.16675 6.22671 6.44008 7.50004 8.00008 7.50004C9.56008 7.50004 10.8334 6.22671 10.8334 4.66671C10.8334 3.10671 9.56008 1.83337 8.00008 1.83337Z" fill="white"/>
<path d="M2.27344 15.1667C2.0001 15.1667 1.77344 14.94 1.77344 14.6667C1.77344 11.82 4.56677 9.5 8.0001 9.5C8.67344 9.5 9.33343 9.58668 9.97343 9.76668C10.2401 9.84002 10.3934 10.1133 10.3201 10.38C10.2468 10.6467 9.97343 10.8 9.70677 10.7267C9.1601 10.5734 8.58677 10.5 8.0001 10.5C5.1201 10.5 2.77344 12.3667 2.77344 14.6667C2.77344 14.94 2.54677 15.1667 2.27344 15.1667Z" fill="white"/>
<path d="M11.9999 15.1667C11.2133 15.1667 10.4666 14.8734 9.88658 14.3467C9.65324 14.1467 9.44658 13.9 9.28658 13.6267C8.99325 13.1467 8.83325 12.58 8.83325 12C8.83325 11.1667 9.15325 10.3867 9.72658 9.79338C10.3266 9.17338 11.1333 8.83337 11.9999 8.83337C12.9066 8.83337 13.7666 9.22005 14.3533 9.88672C14.8733 10.4667 15.1666 11.2134 15.1666 12C15.1666 12.2534 15.1333 12.5067 15.0666 12.7467C14.9999 13.0467 14.8732 13.36 14.6999 13.6334C14.1466 14.58 13.1066 15.1667 11.9999 15.1667ZM11.9999 9.83337C11.4066 9.83337 10.8599 10.0667 10.4466 10.4867C10.0533 10.8934 9.83325 11.4267 9.83325 12C9.83325 12.3934 9.93992 12.78 10.1466 13.1134C10.2533 13.3 10.3932 13.4667 10.5532 13.6067C10.9532 13.9734 11.4666 14.1734 11.9999 14.1734C12.7533 14.1734 13.4666 13.7734 13.8533 13.1267C13.9666 12.94 14.0532 12.7267 14.0999 12.5201C14.1466 12.3467 14.1666 12.18 14.1666 12.0067C14.1666 11.4734 13.9666 10.9601 13.6066 10.5601C13.2066 10.0934 12.6199 9.83337 11.9999 9.83337Z" fill="white"/>
<path d="M12.9999 12.4867H11.0066C10.7333 12.4867 10.5066 12.26 10.5066 11.9867C10.5066 11.7134 10.7333 11.4867 11.0066 11.4867H12.9999C13.2733 11.4867 13.4999 11.7134 13.4999 11.9867C13.4999 12.26 13.2733 12.4867 12.9999 12.4867Z" fill="white"/>
<path d="M12 13.5066C11.7267 13.5066 11.5 13.28 11.5 13.0066V11.0133C11.5 10.74 11.7267 10.5133 12 10.5133C12.2733 10.5133 12.5 10.74 12.5 11.0133V13.0066C12.5 13.2866 12.2733 13.5066 12 13.5066Z" fill="white"/>
</svg>
