<svg width="18" height="18" viewBox="0 0 18 18" fill="none" xmlns="http://www.w3.org/2000/svg">
<path d="M14.925 17.0625H3.075C1.635 17.0625 0.9375 16.3275 0.9375 14.8275V11.7975C0.9375 10.29 1.635 9.5625 3.075 9.5625H14.925C16.365 9.5625 17.0625 10.2975 17.0625 11.7975V14.8275C17.0625 16.3275 16.365 17.0625 14.925 17.0625ZM3.075 10.6875C2.3175 10.6875 2.0625 10.845 2.0625 11.7975V14.8275C2.0625 15.78 2.3175 15.9375 3.075 15.9375H14.925C15.6825 15.9375 15.9375 15.78 15.9375 14.8275V11.7975C15.9375 10.845 15.6825 10.6875 14.925 10.6875H3.075Z" fill="white"/>
<path d="M14.925 8.4375H3.075C1.635 8.4375 0.9375 7.7025 0.9375 6.2025V3.1725C0.9375 1.665 1.635 0.9375 3.075 0.9375H14.925C16.365 0.9375 17.0625 1.6725 17.0625 3.1725V6.2025C17.0625 7.7025 16.365 8.4375 14.925 8.4375ZM3.075 2.0625C2.3175 2.0625 2.0625 2.22 2.0625 3.1725V6.2025C2.0625 7.155 2.3175 7.3125 3.075 7.3125H14.925C15.6825 7.3125 15.9375 7.155 15.9375 6.2025V3.1725C15.9375 2.22 15.6825 2.0625 14.925 2.0625H3.075Z" fill="white"/>
</svg>
