<svg width="12" height="12" viewBox="0 0 12 12" fill="none" xmlns="http://www.w3.org/2000/svg">
<path d="M6.44214 1.266C6.26914 0.939002 5.73114 0.939002 5.55814 1.266L1.05814 9.766C1.01778 9.84221 0.997818 9.92755 1.00019 10.0138C1.00256 10.0999 1.02718 10.1841 1.07167 10.2579C1.11615 10.3318 1.17898 10.3929 1.25406 10.4353C1.32914 10.4777 1.41391 10.5 1.50014 10.5H10.5001C10.5864 10.5002 10.6712 10.478 10.7463 10.4357C10.8214 10.3933 10.8842 10.3322 10.9287 10.2583C10.9732 10.1845 10.9977 10.1003 11 10.0141C11.0023 9.92793 10.9822 9.84262 10.9416 9.7665L6.44214 1.266ZM6.50014 9H5.50014V8H6.50014V9ZM5.50014 7V4.5H6.50014L6.50064 7H5.50014Z" fill="#FCBE04"/>
</svg>
