<svg width="22" height="22" viewBox="0 0 22 22" fill="none" xmlns="http://www.w3.org/2000/svg">
<path d="M0.536778 3.41333C0.183498 3.0342 -0.00883032 2.53274 0.000311592 2.01461C0.0094535 1.49647 0.219352 1.00211 0.585787 0.635675C0.952222 0.269241 1.44658 0.0593421 1.96472 0.0502001C2.48285 0.0410582 2.98431 0.233387 3.36344 0.586667L12.0301 9.25333C12.4046 9.62833 12.615 10.1367 12.615 10.6667C12.615 11.1967 12.4046 11.705 12.0301 12.08L3.36344 20.7467C2.98431 21.0999 2.48285 21.2923 1.96472 21.2831C1.44658 21.274 0.952222 21.0641 0.585787 20.6977C0.219352 20.3312 0.0094535 19.8369 0.000311592 19.3187C-0.00883032 18.8006 0.183498 18.2991 0.536778 17.92L7.79011 10.6667L0.536778 3.41333ZM19.9501 21.3333C20.4805 21.3333 20.9893 21.1226 21.3643 20.7475C21.7394 20.3725 21.9501 19.8638 21.9501 19.3333V2C21.9501 1.46957 21.7394 0.960859 21.3643 0.585786C20.9893 0.210713 20.4805 0 19.9501 0C19.4197 0 18.911 0.210713 18.5359 0.585786C18.1608 0.960859 17.9501 1.46957 17.9501 2V19.3333C17.9501 20.4373 18.8461 21.3333 19.9501 21.3333Z" fill="black"/>
</svg>
