<svg width="24" height="24" viewBox="0 0 24 24" fill="none" xmlns="http://www.w3.org/2000/svg">
<path d="M21.6002 5.59988L19.2002 5.59988V8.39988C19.8898 8.39988 20.3002 9.02948 20.3002 9.84708C20.3002 10.2551 20.0746 10.6823 20.0746 10.6823C20.0746 10.6823 20.2002 10.7247 20.2002 11.0055C20.2002 11.4103 19.873 11.6367 19.873 11.6367C19.8274 12.0407 19.2002 12.6311 19.2002 12.6311V13.3047C19.537 14.3151 21.6002 13.6415 21.6002 15.9991H19.2002V18.3991H21.6002C22.4842 18.3991 23.2002 17.6831 23.2002 16.7991V7.19988C23.2002 6.31588 22.4842 5.59988 21.6002 5.59988ZM16.0002 3.99988L8.00023 3.99988C7.11623 3.99988 6.40023 4.71588 6.40023 5.59988L6.40023 18.3999C6.40023 19.2839 7.11623 19.9999 8.00023 19.9999H16.0002C16.8842 19.9999 17.6002 19.2839 17.6002 18.3999V5.59988C17.6002 4.71588 16.8842 3.99988 16.0002 3.99988ZM8.80023 15.9999C8.80023 13.6495 10.8634 14.3159 11.2002 13.3055V12.6319C11.2002 12.6319 10.573 12.0407 10.5274 11.6375C10.5274 11.6375 10.2002 11.5151 10.2002 11.0063C10.2002 10.7439 10.3258 10.6831 10.3258 10.6831C10.3258 10.6831 10.0506 10.3007 10.0506 9.81028C10.0498 8.64868 10.9234 7.99988 12.0002 7.99988C12.5074 7.99988 12.8002 8.39988 12.8002 8.39988C13.4898 8.39988 13.9002 9.02948 13.9002 9.84708C13.9002 10.2551 13.6746 10.6823 13.6746 10.6823C13.6746 10.6823 13.8002 10.7247 13.8002 11.0055C13.8002 11.4103 13.473 11.6367 13.473 11.6367C13.4274 12.0407 12.8002 12.6311 12.8002 12.6311V13.3047C13.137 14.3151 15.2002 13.6415 15.2002 15.9991L8.80023 15.9999ZM2.40023 15.9999C2.40023 13.6495 4.46343 14.3159 4.80023 13.3055V12.6319C4.80023 12.6319 4.17303 12.0407 4.12743 11.6375C4.12743 11.6375 3.80023 11.5151 3.80023 11.0063C3.80023 10.7439 3.92583 10.6831 3.92583 10.6831C3.92583 10.6831 3.65063 10.3007 3.65063 9.81028C3.65063 8.95748 4.12343 8.38468 4.80103 8.13828V5.59988H2.40023C1.51623 5.59988 0.800232 6.31588 0.800232 7.19988L0.800232 16.7999C0.800232 17.6839 1.51623 18.3999 2.40023 18.3999H4.80023V15.9999H2.40023Z" fill="black"/>
</svg>
