<svg width="20" height="22" viewBox="0 0 20 22" fill="none" xmlns="http://www.w3.org/2000/svg">
<path d="M2.36842 0C1.06316 0 0 1.0581 0 2.35714V18.5952C0 19.8943 1.06316 20.9524 2.36842 20.9524H9.2794C8.82677 20.4914 8.44774 19.9624 8.14248 19.381H2.36842C1.93158 19.381 1.57895 19.03 1.57895 18.5952V2.35714C1.57895 1.92238 1.93158 1.57143 2.36842 1.57143H14.4737C14.9105 1.57143 15.2632 1.92238 15.2632 2.35714V9.50735C15.8105 9.5964 16.3421 9.74286 16.8421 9.95238V2.35714C16.8421 1.0581 15.7789 0 14.4737 0H2.36842ZM8.42105 3.14286C7.9325 3.14286 7.46395 3.33601 7.11849 3.67983C6.77303 4.02364 6.57895 4.48996 6.57895 4.97619C6.57895 5.46242 6.77303 5.92874 7.11849 6.27255C7.46395 6.61637 7.9325 6.80952 8.42105 6.80952C8.90961 6.80952 9.37816 6.61637 9.72362 6.27255C10.0691 5.92874 10.2632 5.46242 10.2632 4.97619C10.2632 4.48996 10.0691 4.02364 9.72362 3.67983C9.37816 3.33601 8.90961 3.14286 8.42105 3.14286ZM6.05263 7.85714C5.61684 7.85714 5.26316 8.20914 5.26316 8.64286V9.16667C5.26316 10.1792 6.67684 11 8.42105 11C10.1653 11 11.5789 10.1792 11.5789 9.16667V8.64286C11.5789 8.20914 11.2253 7.85714 10.7895 7.85714H6.05263ZM14.2105 10.4762C11.0132 10.4762 8.42105 13.056 8.42105 16.2381C8.42105 19.4202 11.0132 22 14.2105 22C17.4079 22 20 19.4202 20 16.2381C20 13.056 17.4079 10.4762 14.2105 10.4762ZM4.47368 12.5714C4.03684 12.5714 3.68421 12.9224 3.68421 13.3571C3.68421 13.7919 4.03684 14.1429 4.47368 14.1429H7.70559C7.88454 13.5824 8.13725 13.0586 8.44778 12.5714H4.47368ZM14.7368 13.0952C14.8714 13.0952 15.0061 13.1463 15.109 13.2487L17.7405 15.8677C17.9463 16.0726 17.9463 16.4036 17.7405 16.6084L15.109 19.2275C14.9032 19.4323 14.5705 19.4323 14.3647 19.2275C14.2621 19.1254 14.2105 18.9912 14.2105 18.8571C14.2105 18.723 14.2621 18.5889 14.3647 18.4868L16.0979 16.7619H10.5263C10.2358 16.7619 10 16.5278 10 16.2381C10 15.9484 10.2358 15.7143 10.5263 15.7143H16.0979L14.3647 13.9894C14.1589 13.7846 14.1589 13.4535 14.3647 13.2487C14.4676 13.1463 14.6022 13.0952 14.7368 13.0952ZM4.47368 15.7143C4.03684 15.7143 3.68421 16.0652 3.68421 16.5C3.68421 16.9348 4.03684 17.2857 4.47368 17.2857H7.44757C7.39494 16.94 7.36842 16.5943 7.36842 16.2381C7.36842 16.06 7.3741 15.8871 7.39515 15.7143H4.47368Z" fill="black"/>
</svg>
