<svg width="24" height="24" viewBox="0 0 24 24" fill="none" xmlns="http://www.w3.org/2000/svg">
<path d="M4.75052 4.5C3.78552 4.5 3.00052 5.285 3.00052 6.25L3.00052 15.75C3.00052 16.715 3.78552 17.5 4.75052 17.5H19.2505C20.2155 17.5 21.0005 16.715 21.0005 15.75V6.25C21.0005 5.285 20.2155 4.5 19.2505 4.5L4.75052 4.5ZM17.2505 7.5C17.4424 7.5 17.6343 7.57323 17.7808 7.71973C18.0738 8.01273 18.0733 8.48727 17.7808 8.78027L13.7808 12.7803C13.5108 13.0503 13.0803 13.0754 12.7818 12.8359L10.772 11.2275L7.24466 14.3145C7.10216 14.439 6.92602 14.5 6.75052 14.5C6.54202 14.5 6.33407 14.4132 6.18607 14.2432C5.91357 13.9317 5.94488 13.4585 6.25638 13.1855L10.2564 9.68555C10.5299 9.44605 10.9358 9.43706 11.2193 9.66406L13.1949 11.2451L16.7202 7.71973C16.8667 7.57323 17.0586 7.5 17.2505 7.5ZM1.75052 18C1.65114 17.9986 1.55246 18.017 1.46024 18.054C1.36801 18.0911 1.28407 18.1461 1.21329 18.2159C1.14252 18.2857 1.08631 18.3688 1.04795 18.4605C1.00959 18.5522 0.989838 18.6506 0.989838 18.75C0.989838 18.8494 1.00959 18.9478 1.04795 19.0395C1.08631 19.1312 1.14252 19.2143 1.21329 19.2841C1.28407 19.3539 1.36801 19.4089 1.46024 19.446C1.55246 19.483 1.65114 19.5014 1.75052 19.5H22.2505C22.3499 19.5014 22.4486 19.483 22.5408 19.446C22.633 19.4089 22.717 19.3539 22.7877 19.2841C22.8585 19.2143 22.9147 19.1312 22.9531 19.0395C22.9914 18.9478 23.0112 18.8494 23.0112 18.75C23.0112 18.6506 22.9914 18.5522 22.9531 18.4605C22.9147 18.3688 22.8585 18.2857 22.7877 18.2159C22.717 18.1461 22.633 18.0911 22.5408 18.054C22.4486 18.017 22.3499 17.9986 22.2505 18H1.75052Z" fill="black"/>
</svg>
