<svg width="24" height="24" viewBox="0 0 24 24" fill="none" xmlns="http://www.w3.org/2000/svg">
<path d="M5.00037 2C3.34587 2 2.00037 3.3455 2.00037 5L2.00037 6.25C2.00037 6.6645 2.33637 7 2.75037 7H4.00037H4.75037C5.66937 7 6.49821 7.385 7.09021 8L16.2504 8C16.6644 8 17.0004 8.3355 17.0004 8.75C17.0004 9.1645 16.6644 9.5 16.2504 9.5H7.90955C7.96705 9.741 8.00037 9.9915 8.00037 10.25V11H11.2504C11.6644 11 12.0004 11.3355 12.0004 11.75C12.0004 12.1645 11.6644 12.5 11.2504 12.5H8.00037V18.2451C8.00037 18.7036 7.88393 19.1585 7.66443 19.5615L6.33533 22H17.7504C18.9909 22 20.0004 20.9905 20.0004 19.75V5C20.0004 3.3455 18.6549 2 17.0004 2L5.00037 2ZM5.00037 3.5L14.4037 3.5C14.1472 3.9415 14.0004 4.454 14.0004 5V5.5L3.50037 5.5V5C3.50037 4.173 4.17337 3.5 5.00037 3.5ZM4.75037 8C3.50787 8 2.50037 9.0075 2.50037 10.25L2.50037 18.2451C2.50037 18.5366 2.57423 18.8265 2.71423 19.083L4.09216 21.6094C4.22366 21.8504 4.47587 22 4.75037 22C5.02487 22 5.27707 21.8504 5.40857 21.6094L6.7865 19.082C6.9265 18.826 7.00037 18.5371 7.00037 18.2451V10.25C7.00037 9.0075 5.99287 8 4.75037 8ZM15.5004 13C16.6138 13 17.5004 13.8865 17.5004 15C17.5004 16.1135 16.6138 17 15.5004 17C14.3869 17 13.5004 16.1135 13.5004 15C13.5004 13.8865 14.3869 13 15.5004 13ZM13.5004 17.8652C14.0686 18.264 14.7579 18.5 15.5004 18.5C16.2428 18.5 16.9321 18.264 17.5004 17.8652V19.75C17.5004 20.0175 17.3583 20.2644 17.1273 20.3984C17.0108 20.4659 16.8804 20.5 16.7504 20.5C16.6219 20.5 16.4933 20.4674 16.3783 20.4014L15.5004 19.8994L14.6224 20.4014C14.3904 20.5344 14.1049 20.5329 13.8734 20.3984C13.6424 20.2644 13.5004 20.0175 13.5004 19.75V17.8652Z" fill="black"/>
</svg>
